<svg xmlns="http://www.w3.org/2000/svg" fill="none" viewBox="0 0 130 130" height="130" width="130">
<path fill="black" d="M98.8798 110.722C94.4272 110.722 90.8047 107.221 90.8047 102.92V86.679C90.8047 85.1924 89.4121 83.9352 87.7625 83.9352C86.113 83.9352 84.7186 85.1924 84.7186 86.679V88.2018C84.7186 92.5046 81.0962 96.0036 76.6435 96.0036C72.1908 96.0036 68.5684 92.5028 68.5684 88.2018V79.1049H73.5996V88.2018C73.5996 89.6885 74.994 90.9457 76.6435 90.9457C78.293 90.9457 79.6874 89.6885 79.6874 88.2018V86.679C79.6874 82.3762 83.3099 78.8773 87.7625 78.8773C92.2152 78.8773 95.8359 82.3781 95.8359 86.679V102.92C95.8359 104.407 97.2303 105.664 98.8798 105.664C100.529 105.664 101.922 104.407 101.922 102.92V76.7566C101.922 74.5257 102.917 72.3996 104.655 70.913C106.168 69.5148 108.145 68.7471 110.229 68.7471C114.682 68.7471 118.304 72.2479 118.304 76.5489V78.4221C118.304 80.5861 120.442 81.2256 121.707 81.2617C122.76 81.2906 123.732 80.9745 124.307 80.4109C124.753 79.9756 124.969 79.3885 124.969 78.6136L124.961 50.2462H129.993L130 78.6118C130 80.7632 129.245 82.6382 127.815 84.0363C126.262 85.5537 123.984 86.3846 121.565 86.316C119.488 86.2563 117.521 85.5464 116.026 84.3163C114.25 82.8567 113.273 80.7632 113.273 78.4221V76.5489C113.273 75.0351 111.907 73.805 110.229 73.805C109.401 73.805 108.624 74.1067 108.04 74.6558L107.936 74.7497C107.313 75.2736 106.953 76.0052 106.953 76.7566V102.92C106.953 107.223 103.331 110.722 98.8798 110.722Z"></path>
<path fill="black" d="M7.75139 129.761C7.08295 129.761 6.41453 129.675 5.75328 129.496C3.08313 128.777 0.980775 126.662 0.263822 123.979C-0.510631 121.071 0.43812 118 2.87109 115.554L62.8131 55.2952L66.3709 58.8718L6.42891 119.131C5.2861 120.28 4.8225 121.537 5.12438 122.669C5.37594 123.614 6.11625 124.357 7.05602 124.609C8.18266 124.913 9.4333 124.447 10.5761 123.298L70.518 63.0391L74.0759 66.6157L14.1339 126.875C12.258 128.761 10.0101 129.761 7.75139 129.761Z"></path>
<path fill="black" d="M85.89 67.3184C83.7984 67.3184 81.5523 66.464 79.5219 64.4228L64.9923 49.8164C62.6582 47.4699 62.1443 45.0855 62.1227 43.4977C62.0958 41.386 62.9026 39.3972 64.3958 37.8961L67.9536 41.4727C67.4289 42.0002 67.145 42.6957 67.154 43.4309C67.1666 44.3629 67.6481 45.333 68.5501 46.2398L83.0797 60.8461C85.0491 62.8259 86.8657 62.4069 87.8216 61.4459L91.3795 65.0225C89.9707 66.4387 88.0103 67.3184 85.89 67.3184Z"></path>
<path fill="black" d="M101.088 64.5998C101.054 64.5998 101.02 64.5998 100.986 64.5998C99.4066 64.5799 97.0329 64.0615 94.7006 61.7168L67.6881 34.5615C65.354 32.215 64.8401 29.8306 64.8185 28.2428C64.7916 26.1312 65.5984 24.1423 67.0916 22.6412L70.6476 26.2179C70.1229 26.7453 69.839 27.4408 69.848 28.176C69.8606 29.1081 70.3421 30.0781 71.2442 30.9831L98.2566 58.1384C99.1568 59.0434 100.124 59.5293 101.051 59.5419C101.78 59.5509 102.474 59.2655 102.999 58.7381L106.556 62.3147C105.088 63.7905 103.149 64.6016 101.087 64.6016L101.088 64.5998Z"></path>
<path fill="black" d="M126.796 28.7595L123.238 25.1828C123.763 24.6554 124.047 23.9599 124.038 23.2247C124.025 22.2926 123.544 21.3226 122.642 20.4158L108.77 6.47057C106.801 4.49078 104.984 4.90986 104.028 5.87266L100.47 2.29603C103.268 -0.516496 108.24 -1.21376 112.328 2.89575L126.2 16.841C128.534 19.1875 129.048 21.5719 129.069 23.1597C129.096 25.2713 128.289 27.2602 126.796 28.7613V28.7595Z"></path>
<path fill="black" d="M124.43 44.3467L120.872 40.7701C121.828 39.8091 122.247 37.9828 120.278 36.003L93.2651 8.84776C91.2957 6.86797 89.479 7.28705 88.5231 8.24985L84.9653 4.67322C87.7631 1.86069 92.735 1.16343 96.8229 5.27113L123.835 32.4264C127.923 36.5359 127.228 41.5323 124.43 44.3467Z"></path>
<path fill="black" d="M112.647 58.2595C110.389 58.2595 108.143 57.2605 106.265 55.3729L73.9965 22.9358C69.9086 18.8263 70.6022 13.8298 73.4017 11.0173C76.2013 8.20475 81.1714 7.50569 85.2593 11.6152L117.526 44.0523C119.957 46.4963 120.907 49.5672 120.133 52.4773C119.418 55.1615 117.314 57.2768 114.645 57.9957C113.984 58.1728 113.316 58.2613 112.647 58.2613V58.2595ZM109.823 51.7963C110.965 52.9451 112.216 53.4112 113.343 53.1077C114.282 52.8548 115.021 52.1106 115.274 51.1658C115.576 50.0332 115.113 48.776 113.97 47.6271L81.7033 15.19C79.7339 13.2102 77.9173 13.6311 76.9614 14.5921C76.0054 15.5531 75.5868 17.3775 77.5561 19.3573L109.824 51.7945L109.823 51.7963Z"></path>
</svg>
