<svg xmlns="http://www.w3.org/2000/svg" fill="none" viewBox="0 0 130 90" height="90" width="130">
<path fill="black" d="M32.1356 54.8C10.6956 54.8 4.93563 45.52 4.93563 37.68C4.93563 36.16 5.09563 34.8 5.25563 34.16H12.1356C12.0556 34.8 11.9756 35.92 11.9756 36.8C11.9756 42.8 16.6156 48.24 32.2956 48.24C48.1356 48.24 53.5756 43.36 53.5756 36.96C53.5756 32.56 50.1356 29.76 40.9356 29.76H28.0556V23.84H38.3756C47.8956 23.84 50.7756 20.88 50.7756 16.32C50.7756 10.56 44.8556 7.12 32.9356 7.12C17.9756 7.12 13.7356 12.24 13.7356 18.48C13.7356 19.28 13.8156 20.32 13.8956 20.96H7.09563C6.93563 20.4 6.69563 19.04 6.69563 17.52C6.69563 9.6 12.6956 0.559997 32.9356 0.559997C49.4956 0.559997 57.6556 6.96 57.6556 15.28C57.6556 20 55.8156 24.08 49.0956 25.52V25.68C57.4156 26.56 61.0956 31.52 61.0956 37.36C61.0956 47.2 52.8556 54.8 32.1356 54.8ZM96.92 54.8C77 54.8 68.92 41.92 68.92 27.44C68.92 12.16 78.52 0.559997 96.92 0.559997C115.48 0.559997 125.08 12.16 125.08 27.44C125.08 41.92 116.92 54.8 96.92 54.8ZM96.92 48.24C111.32 48.24 117.56 38.96 117.56 27.44C117.56 15.28 110.36 7.12 96.92 7.12C83.64 7.12 76.44 15.28 76.44 27.44C76.44 38.96 82.6 48.24 96.92 48.24ZM9.25189 89.28C2.95189 89.28 0.459891 85.584 0.459891 82.084C0.459891 78.164 3.45589 74.888 9.44789 74.888C15.4119 74.888 17.6799 77.772 17.6799 80.6H15.3279C15.2999 78.752 13.7319 77.072 9.44789 77.072C5.02389 77.072 2.92389 79.284 2.92389 82.084C2.92389 84.66 4.57589 87.096 9.25189 87.096C13.7599 87.096 15.3839 85.416 15.4119 83.624H17.7639C17.7639 86.34 15.5239 89.28 9.25189 89.28ZM26.9072 89.252C21.9232 89.252 19.7952 87.264 19.7952 84.94C19.7952 81.888 22.6512 81.3 25.7592 81.3H34.5512V80.936C34.5512 78.36 32.6752 76.96 28.3352 76.96C24.1632 76.96 22.6232 78.108 22.6232 79.62C22.6232 79.704 22.6232 79.788 22.6512 79.984H20.2992C20.2712 79.732 20.2712 79.564 20.2712 79.508C20.2712 76.764 22.9032 74.888 28.3352 74.888C34.1312 74.888 37.0152 77.436 37.0152 81.188V89H34.5512C34.6352 88.048 34.6912 86.508 34.7192 85.444H34.6912C34.0472 87.852 31.8072 89.252 26.9072 89.252ZM27.0472 87.18C32.3112 87.18 34.5512 85.164 34.5512 83.148V83.092H26.0672C23.6312 83.092 22.1472 83.26 22.1472 84.884C22.1472 85.864 22.7912 87.18 27.0472 87.18ZM40.2816 89V69.4H42.7456V89H40.2816ZM55.2019 89.28C48.5099 89.28 45.8779 85.724 45.8779 82.112C45.8779 78.528 48.5939 74.888 55.2019 74.888C61.8099 74.888 64.5259 78.528 64.5259 82.112C64.5259 85.724 61.8939 89.28 55.2019 89.28ZM55.2019 87.096C60.2139 87.096 62.0619 84.716 62.0619 82.112C62.0619 79.536 60.1859 77.072 55.2019 77.072C50.2179 77.072 48.3419 79.536 48.3419 82.112C48.3419 84.688 50.1899 87.096 55.2019 87.096ZM67.5407 89V75.168H70.0047L69.9767 79.564H70.0327C70.9287 76.904 72.9727 74.888 77.0327 74.888C81.5967 74.888 83.5567 77.408 83.5567 81.608C83.5567 82.56 83.5287 83.372 83.5007 83.736H81.1767C81.1767 83.4 81.2047 82.784 81.2047 82.308C81.2047 78.808 80.0287 77.072 76.5847 77.072C72.5247 77.072 70.0047 80.264 70.0047 83.904V89H67.5407ZM86.6279 73.012V70.044H89.4279V73.012H86.6279ZM86.7959 89V75.168H89.2599V89H86.7959ZM110.055 81.692V82.756H94.991C95.187 85.136 96.755 87.208 101.683 87.208C105.883 87.208 107.423 85.864 107.703 84.52H110.055C109.831 86.76 107.423 89.28 101.683 89.28C94.543 89.28 92.499 85.556 92.499 82.196C92.499 77.8 95.887 74.888 101.543 74.888C107.283 74.888 110.055 77.548 110.055 81.692ZM107.703 80.964V80.88C107.703 78.556 105.799 76.96 101.571 76.96C97.651 76.96 95.551 78.388 95.075 80.964H107.703ZM120.908 89.28C113.908 89.28 112.788 86.452 112.788 84.408H115.14C115.14 85.78 115.896 87.208 120.908 87.208C125.864 87.208 127.068 86.172 127.068 84.884C127.068 84.24 126.844 83.736 125.948 83.484C125.052 83.232 122.588 83.176 120.572 83.12C117.604 83.036 115.392 82.7 114.3 82.14C113.264 81.608 112.788 80.544 112.788 79.424C112.788 76.708 115.812 74.888 120.908 74.888C127.404 74.888 128.748 77.324 128.748 79.844H126.396C126.368 78.164 125.528 76.96 120.964 76.96C117.268 76.96 115.252 77.688 115.252 79.34C115.252 79.956 115.504 80.404 116.344 80.656C117.352 80.964 119.424 80.992 121.888 81.104C124.66 81.216 126.424 81.356 127.656 81.86C128.972 82.42 129.532 83.596 129.532 84.828C129.532 86.872 127.88 89.28 120.908 89.28Z"></path>
</svg>
