<svg xmlns="http://www.w3.org/2000/svg" fill="none" viewBox="0 0 130 131" height="131" width="130">
<path fill="black" d="M97.7859 36.1624C97.254 36.1624 96.7254 35.961 96.3214 35.5549C95.51 34.7392 95.51 33.4192 96.318 32.6035L98.1024 30.8131C98.9104 30.0008 100.223 30.0008 101.035 30.8131C101.843 31.6254 101.843 32.9454 101.035 33.761L99.2504 35.5549C98.8464 35.961 98.3162 36.1624 97.7859 36.1624Z"></path>
<path fill="black" d="M89.7088 44.282C89.1802 44.282 88.6483 44.0806 88.2443 43.6711C87.4329 42.8588 87.4329 41.5371 88.2443 40.7231L90.0253 38.9327C90.8367 38.117 92.1497 38.117 92.9578 38.9327C93.7691 39.745 93.7691 41.0667 92.9578 41.8823L91.1767 43.6728C90.7693 44.0823 90.2408 44.2837 89.7088 44.2837V44.282Z"></path>
<path fill="black" d="M99.5669 44.2819C99.0384 44.2819 98.5064 44.0805 98.1024 43.6709L96.318 41.8805C95.51 41.0648 95.51 39.7448 96.3214 38.9309C97.1294 38.1152 98.4441 38.1152 99.2521 38.9309L101.037 40.7213C101.845 41.537 101.845 42.8569 101.037 43.6692C100.631 44.0788 100.101 44.2802 99.5686 44.2802L99.5669 44.2819Z"></path>
<path fill="black" d="M91.4932 36.1624C90.9612 36.1624 90.4293 35.961 90.0253 35.5549L88.2443 33.761C87.4329 32.9454 87.4329 31.6254 88.2443 30.8131C89.0523 30.0008 90.3653 30.0008 91.1767 30.8131L92.9578 32.6035C93.7691 33.4192 93.7691 34.7392 92.9578 35.5549C92.5537 35.961 92.0218 36.1624 91.4932 36.1624Z"></path>
<path fill="black" d="M37.1771 20.2465C36.6485 20.2465 36.1166 20.0451 35.7125 19.6356C34.9012 18.8233 34.9012 17.5033 35.7125 16.6876L37.4717 14.9192C38.2831 14.1069 39.5961 14.1069 40.4041 14.9192C41.2121 15.7348 41.2121 17.0548 40.4041 17.8705L38.6416 19.6356C38.2376 20.0451 37.7073 20.2465 37.1771 20.2465Z"></path>
<path fill="black" d="M29.2043 28.2645C28.6724 28.2645 28.1404 28.0597 27.7364 27.6536C26.9284 26.8413 26.9284 25.5179 27.7364 24.7056L29.4956 22.9372C30.3069 22.1215 31.62 22.1215 32.428 22.9372C33.2394 23.7495 33.2394 25.0695 32.428 25.8852L30.6672 27.6536C30.2632 28.0597 29.7312 28.2645 29.2026 28.2645H29.2043Z"></path>
<path fill="black" d="M38.9377 28.2645C38.4091 28.2645 37.8771 28.0597 37.4731 27.6536L35.714 25.8852C34.9026 25.0695 34.9026 23.7495 35.714 22.9372C36.522 22.1215 37.8351 22.1215 38.6464 22.9372L40.4073 24.7056C41.2153 25.5179 41.2153 26.8413 40.4073 27.6536C40.0032 28.0597 39.4713 28.2645 38.9394 28.2645H38.9377Z"></path>
<path fill="black" d="M30.9635 20.2465C30.4315 20.2465 29.9029 20.0451 29.4989 19.6356L27.7364 17.8705C26.9284 17.0548 26.9284 15.7348 27.7364 14.9192C28.5444 14.1069 29.8575 14.1069 30.6689 14.9192L32.4297 16.6876C33.2411 17.5033 33.2411 18.8233 32.4297 19.6356C32.0257 20.0451 31.4937 20.2465 30.9651 20.2465H30.9635Z"></path>
<path fill="black" d="M72.605 98.3589C71.733 98.3589 70.9217 97.8004 70.6355 96.9205C70.2769 95.8272 70.8712 94.6477 71.9603 94.289C77.9296 92.3293 83.3097 90.0346 87.9541 87.4741C101.499 80.0061 107.5 71.1385 113.309 62.562C116.013 58.5682 118.615 54.7268 121.856 51.1763C104.375 54.2597 92.5026 62.3268 85.3937 68.9115C76.7647 76.8991 73.0528 84.516 73.0175 84.5905C72.5259 85.6211 71.2971 86.0594 70.2668 85.5737C69.2366 85.0846 68.7888 83.856 69.2669 82.8153C80.889 57.4446 69.7433 21.0046 64.9995 7.86404C60.2541 21.0029 49.1118 57.4446 60.7321 82.8153C61.2069 83.851 60.7692 85.0728 59.7508 85.5686C58.7323 86.0611 57.5051 85.6414 56.9967 84.6277C56.9631 84.5566 53.2546 77.3154 44.6323 69.6984C37.7271 63.5943 26.334 56.1432 9.67521 52.9532C18.2251 60.0761 22.2315 66.1294 25.8424 71.5853C29.9414 77.774 33.1769 82.6613 41.9978 87.5757C46.2416 89.9432 51.4904 92.1381 58.0404 94.289C59.1279 94.646 59.7238 95.8256 59.3653 96.9205C59.0134 98.0137 57.8401 98.6127 56.751 98.2557C49.9484 96.0185 44.4623 93.722 39.9845 91.2242C30.2831 85.8157 26.4501 80.0247 22.3881 73.897C18.1779 67.5323 13.4039 60.3231 0.881231 51.4623C0.108559 50.9191 -0.197851 49.919 0.130409 49.0339C0.458668 48.1455 1.34076 47.5955 2.27672 47.6835C24.4435 49.8631 39.1175 59.2299 47.526 66.7047C49.5999 68.5476 51.4012 70.3618 52.9516 72.0727C46.4806 40.603 62.3246 3.05288 63.0973 1.25906C63.4222 0.494147 64.173 0 64.9995 0C65.8261 0 66.5769 0.494147 66.9051 1.25906C67.6677 3.03934 83.2979 40.0834 77.1821 71.4127C78.6904 69.6764 80.4361 67.8437 82.4377 65.9788C90.8512 58.1469 105.535 48.3519 127.724 46.1723C128.633 46.086 129.493 46.6004 129.842 47.4466C130.192 48.2961 129.948 49.2742 129.242 49.8581C124.002 54.1869 120.474 59.3975 116.738 64.9092C110.939 73.4739 104.364 83.1791 89.9506 91.1295C85.0789 93.8151 79.4615 96.2148 73.2481 98.2557C73.036 98.3251 72.8155 98.3589 72.6033 98.3589H72.605Z"></path>
<path fill="black" d="M65.0012 130.627C63.8548 130.627 62.9272 129.693 62.9272 128.541V105.192C62.9272 104.043 63.8548 103.109 65.0012 103.109C66.1476 103.109 67.0734 104.043 67.0734 105.192V128.541C67.0734 129.693 66.1476 130.627 65.0012 130.627Z"></path>
<path fill="black" d="M55.3536 108.167C26.2479 108.171 5.82175 91.1514 4.92788 90.3933C4.35384 89.9076 4.0862 89.1461 4.22592 88.4065C4.36901 87.6636 4.89759 87.0595 5.60966 86.8209C20.8746 81.7051 40.7132 87.1559 41.5498 87.3928C42.6525 87.7008 43.3006 88.8499 42.9908 89.96C42.6861 91.0702 41.5398 91.7166 40.4372 91.412C40.2638 91.3629 24.4164 87.0188 10.9897 89.7079C18.235 94.6663 36.4543 105.157 59.2759 103.893C60.4307 103.825 61.3969 104.708 61.4609 105.861C61.5249 107.01 60.6495 107.993 59.5065 108.054C58.1059 108.133 56.7171 108.171 55.3553 108.171L55.3536 108.167Z"></path>
<path fill="black" d="M74.647 108.167C73.2784 108.167 71.8997 108.13 70.4958 108.051C69.3544 107.99 68.4774 107.006 68.5414 105.857C68.6053 104.708 69.58 103.818 70.7264 103.889C93.6069 105.169 111.794 94.6646 119.024 89.7028C105.566 86.9867 89.6745 91.2682 89.4995 91.3122C88.3969 91.6185 87.2538 90.9636 86.9525 89.8518C86.6512 88.7399 87.3027 87.5943 88.407 87.2913C89.247 87.0612 109.134 81.7085 124.393 86.8209C125.103 87.0595 125.633 87.6636 125.775 88.4065C125.914 89.1461 125.647 89.9076 125.073 90.3933C124.179 91.1514 103.748 108.167 74.647 108.167Z"></path>
<path fill="black" d="M87.2741 118.985C86.621 118.985 85.9796 118.675 85.5756 118.098C81.1163 111.714 74.7178 109.085 70.1373 108.002C67.1459 107.293 65.0198 107.277 64.9979 107.277C64.9828 107.277 62.855 107.293 59.8653 108.002C55.2848 109.083 48.8863 111.714 44.427 118.098C43.7671 119.039 42.4726 119.269 41.5366 118.605C40.6007 117.945 40.3751 116.644 41.0316 115.702C46.245 108.244 53.6334 105.191 58.9159 103.94C62.4055 103.116 64.8969 103.106 65.0013 103.106C65.1057 103.106 67.597 103.114 71.0867 103.94C76.3691 105.189 83.7575 108.242 88.9709 115.702C89.6308 116.642 89.4036 117.944 88.4676 118.605C88.1057 118.863 87.6899 118.985 87.2758 118.985H87.2741Z"></path>
</svg>
